<mxfile host="Electron" agent="Mozilla/5.0 (X11; Linux x86_64) AppleWebKit/537.36 (KHTML, like Gecko) draw.io/27.0.9 Chrome/134.0.6998.205 Electron/35.4.0 Safari/537.36" version="27.0.9">
  <diagram name="Page-1" id="YJSvo7Jfk0gU7ICk547T">
    <mxGraphModel dx="1223" dy="727" grid="1" gridSize="10" guides="1" tooltips="1" connect="1" arrows="1" fold="1" page="1" pageScale="1" pageWidth="850" pageHeight="1100" math="0" shadow="0">
      <root>
        <mxCell id="0" />
        <mxCell id="1" parent="0" />
        <mxCell id="S0cW34gQ7OBaTAPzfA72-21" value="" style="rounded=0;whiteSpace=wrap;html=1;strokeWidth=2;" vertex="1" parent="1">
          <mxGeometry x="80" y="80" width="240" height="540" as="geometry" />
        </mxCell>
        <mxCell id="S0cW34gQ7OBaTAPzfA72-16" value="&lt;b&gt;Input/Output&lt;/b&gt;" style="rounded=0;whiteSpace=wrap;html=1;strokeWidth=2;" vertex="1" parent="1">
          <mxGeometry x="140" y="160" width="120" height="60" as="geometry" />
        </mxCell>
        <mxCell id="S0cW34gQ7OBaTAPzfA72-18" value="&lt;b&gt;Graph&lt;/b&gt;" style="rounded=0;whiteSpace=wrap;html=1;strokeWidth=2;" vertex="1" parent="1">
          <mxGeometry x="140" y="280" width="120" height="60" as="geometry" />
        </mxCell>
        <mxCell id="S0cW34gQ7OBaTAPzfA72-19" value="&lt;b&gt;Prediction&lt;/b&gt;" style="rounded=0;whiteSpace=wrap;html=1;strokeWidth=2;" vertex="1" parent="1">
          <mxGeometry x="140" y="400" width="120" height="60" as="geometry" />
        </mxCell>
        <mxCell id="S0cW34gQ7OBaTAPzfA72-20" value="&lt;b&gt;Model Abstraction&lt;/b&gt;" style="rounded=0;whiteSpace=wrap;html=1;strokeWidth=2;" vertex="1" parent="1">
          <mxGeometry x="390" y="280" width="120" height="60" as="geometry" />
        </mxCell>
        <mxCell id="S0cW34gQ7OBaTAPzfA72-22" value="&lt;b&gt;&lt;font style=&quot;font-size: 17px;&quot;&gt;Consumer Methods&lt;/font&gt;&lt;/b&gt;" style="text;strokeColor=none;align=center;fillColor=none;html=1;verticalAlign=middle;whiteSpace=wrap;rounded=0;" vertex="1" parent="1">
          <mxGeometry x="110" y="100" width="180" height="30" as="geometry" />
        </mxCell>
        <mxCell id="S0cW34gQ7OBaTAPzfA72-24" value="" style="rounded=0;whiteSpace=wrap;html=1;strokeWidth=2;" vertex="1" parent="1">
          <mxGeometry x="590" y="80" width="240" height="430" as="geometry" />
        </mxCell>
        <mxCell id="S0cW34gQ7OBaTAPzfA72-25" value="&lt;b&gt;Forward/Backward&lt;/b&gt;" style="rounded=0;whiteSpace=wrap;html=1;strokeWidth=2;" vertex="1" parent="1">
          <mxGeometry x="650" y="280" width="120" height="60" as="geometry" />
        </mxCell>
        <mxCell id="S0cW34gQ7OBaTAPzfA72-26" value="&lt;b&gt;Loss&lt;/b&gt;" style="rounded=0;whiteSpace=wrap;html=1;strokeWidth=2;" vertex="1" parent="1">
          <mxGeometry x="140" y="520" width="120" height="60" as="geometry" />
        </mxCell>
        <mxCell id="S0cW34gQ7OBaTAPzfA72-27" value="&lt;b&gt;Update Parameters&lt;/b&gt;" style="rounded=0;whiteSpace=wrap;html=1;strokeWidth=2;" vertex="1" parent="1">
          <mxGeometry x="650" y="400" width="120" height="60" as="geometry" />
        </mxCell>
        <mxCell id="S0cW34gQ7OBaTAPzfA72-28" value="&lt;b&gt;Set Input/Output&lt;/b&gt;" style="rounded=0;whiteSpace=wrap;html=1;strokeWidth=2;" vertex="1" parent="1">
          <mxGeometry x="650" y="160" width="120" height="60" as="geometry" />
        </mxCell>
        <mxCell id="S0cW34gQ7OBaTAPzfA72-29" value="&lt;b&gt;&lt;font style=&quot;font-size: 17px;&quot;&gt;Producer Methods&lt;/font&gt;&lt;/b&gt;" style="text;strokeColor=none;align=center;fillColor=none;html=1;verticalAlign=middle;whiteSpace=wrap;rounded=0;" vertex="1" parent="1">
          <mxGeometry x="620" y="100" width="180" height="30" as="geometry" />
        </mxCell>
        <mxCell id="S0cW34gQ7OBaTAPzfA72-30" style="edgeStyle=orthogonalEdgeStyle;rounded=0;orthogonalLoop=1;jettySize=auto;html=1;exitX=0;exitY=0.5;exitDx=0;exitDy=0;entryX=1.017;entryY=0.426;entryDx=0;entryDy=0;entryPerimeter=0;strokeWidth=2;" edge="1" parent="1" source="S0cW34gQ7OBaTAPzfA72-20" target="S0cW34gQ7OBaTAPzfA72-21">
          <mxGeometry relative="1" as="geometry" />
        </mxCell>
        <mxCell id="S0cW34gQ7OBaTAPzfA72-33" style="edgeStyle=orthogonalEdgeStyle;rounded=0;orthogonalLoop=1;jettySize=auto;html=1;exitX=1;exitY=0.5;exitDx=0;exitDy=0;entryX=-0.017;entryY=0.533;entryDx=0;entryDy=0;entryPerimeter=0;strokeWidth=2;" edge="1" parent="1" source="S0cW34gQ7OBaTAPzfA72-20" target="S0cW34gQ7OBaTAPzfA72-24">
          <mxGeometry relative="1" as="geometry" />
        </mxCell>
      </root>
    </mxGraphModel>
  </diagram>
</mxfile>
